<svg width="48" height="48" viewBox="0 0 48 48" fill="none" xmlns="http://www.w3.org/2000/svg">
<g style="mix-blend-mode:luminosity" clip-path="url(#clip0_1_8421)">
<path d="M17.89 38.7248C16.7194 38.7248 15.9317 37.8635 15.5931 36.4868C15.3869 35.5518 15.3575 34.5579 15.3575 33.5935C15.3575 31.8193 15.4605 29.5003 16.1378 28.3518C16.6311 27.542 17.3894 27.2328 17.9857 27.2328C19.2372 27.2328 19.8924 28.2487 20.1501 29.3678C20.4078 30.4868 20.4593 32.4451 20.4593 33.2549C20.4667 35.8095 20.0765 38.7248 17.89 38.7248ZM24.2286 26.8353C23.0949 25.061 21.2102 23.7285 18.1992 23.6843C15.7035 23.6549 13.8188 24.5089 12.4937 25.9224L12.2949 27.8291H11.1906C10.7783 28.6537 10.4839 29.5739 10.2998 30.5457C12.0961 31.5764 13.2372 33.358 13.2372 35.596C13.2372 37.0389 12.744 38.504 11.89 39.6303C13.2593 41.4267 15.2912 42.3984 17.7133 42.3984C20.7023 42.3984 22.7194 41.1027 23.9857 39.2475C23.0139 37.753 22.4544 35.7653 22.4544 33.3653C22.4544 30.8843 23.0213 28.5727 24.2286 26.8353Z" fill="#FEDD00"/>
<path d="M36.67 26.9451C36.6332 26.8862 36.589 26.8273 36.5522 26.7684C36.0074 25.9512 35.2933 25.2298 34.3731 24.6997C33.3719 24.1255 32.1424 23.7721 30.6111 23.75H30.4712C27.578 23.75 25.5314 24.95 24.2283 26.8347C25.3915 28.6531 25.7669 30.9353 25.7669 32.7905C25.7669 35.0138 25.2516 37.4138 23.9854 39.2617C25.34 41.3451 27.5117 42.4788 30.1252 42.4788C31.8553 42.4788 33.2541 42.0445 34.3804 41.323C35.1166 40.8518 35.7277 40.2555 36.2283 39.5709C36.3166 39.4531 36.3976 39.3353 36.4786 39.2175C35.5215 37.7304 34.9768 35.7647 34.9768 33.3868C34.9694 30.9426 35.5142 28.6752 36.67 26.9451ZM30.2946 38.7905C29.124 38.7905 28.3436 37.9291 28.005 36.5525C27.7915 35.6101 27.7694 34.6236 27.7694 33.6592C27.7694 31.8923 27.8725 29.5659 28.5498 28.4175C29.0504 27.615 29.8013 27.2985 30.3976 27.2985C31.6492 27.2985 32.3044 28.3144 32.562 29.4334C32.8271 30.5525 32.8712 32.5107 32.8712 33.3132C32.8786 35.8752 32.4884 38.7905 30.2946 38.7905Z" fill="#4885C5"/>
<path d="M24.2282 26.834C23.0209 28.5714 22.454 30.8904 22.454 33.3714C22.454 35.7788 23.0135 37.7591 23.9853 39.2536C25.2515 37.4058 25.7669 35.0058 25.7669 32.7825C25.7595 30.9272 25.384 28.645 24.2282 26.834Z" fill="#63A844"/>
<path d="M10.2994 30.5526C9.20985 29.9268 7.87734 29.5808 6.40494 29.5808C5.44053 29.5808 4.26998 29.7649 3.48961 30.0741C3.30556 30.1477 3.12151 30.2581 2.94482 30.3612L3.20249 27.8287H11.1902C11.5436 27.1146 11.978 26.4741 12.4933 25.9219L12.6847 24.1035H-0.611007L-1.59751 33.7992L2.86384 34.3514C3.17304 33.8802 3.59267 33.2029 5.05034 33.2029C6.8982 33.2029 7.78899 34.3735 7.78899 35.9931C7.78899 37.3992 7.03071 38.7833 5.13132 38.7833C4.06384 38.7833 3.20249 38.2827 2.89329 37.2667C2.76077 36.8471 2.76077 36.4054 2.76077 35.9636L-2.55457 36.5084C-2.26745 37.863 -2.00978 39.1146 -0.861314 40.3146C1.17059 42.3759 4.14482 42.3759 5.10188 42.3759C6.61844 42.3759 9.40862 42.2434 11.3595 40.2409C11.551 40.0495 11.7203 39.8434 11.8822 39.6299C10.7191 38.0986 10.0418 35.9563 10.0418 33.306C10.0418 32.3563 10.1301 31.4287 10.2994 30.5526Z" fill="#E33527"/>
<path d="M12.2947 27.8286L12.4935 25.9219C11.9708 26.474 11.5364 27.1219 11.1904 27.8286H12.2947Z" fill="#F58231"/>
<path d="M10.2997 30.5527C10.1303 31.4288 10.042 32.3564 10.042 33.3061C10.042 35.9564 10.7193 38.0987 11.8825 39.63C12.7365 38.5037 13.2297 37.046 13.2297 35.5957C13.2371 33.365 12.096 31.576 10.2997 30.5527Z" fill="#F58231"/>
<path d="M2.16406 20.7983V17.5001H4.14443V9.21057H2.16406V5.66211H12.699V9.21057H10.726V17.5001H12.699V20.7983H2.16406Z" fill="white"/>
<path d="M22.2115 20.7976V17.4995H23.7428V14.0467C23.7428 13.0013 22.9992 12.5375 22.0495 12.5375C20.8348 12.5375 19.9219 13.4283 19.9219 14.643V17.5068H21.4974V20.805H13.252V17.5068H14.7391V12.5301H13.252V9.22461H19.7526V11.4995C19.8556 11.4185 19.9661 11.2933 20.047 11.1829C21.2397 9.82093 22.5943 9.33504 24.3759 9.33504C26.8863 9.33504 28.9256 10.351 28.9256 13.1338V17.4995H30.2581V20.7976H22.2115Z" fill="white"/>
<path d="M43.3694 14.1059L38.9227 14.5991C38.8638 13.3623 38.6135 12.0593 37.1117 12.0593C35.1976 12.0593 35.0503 13.6494 35.0503 15.1807V15.2102C35.0503 16.7341 35.1976 18.3316 37.1117 18.3316C38.1129 18.3316 38.9964 17.7574 38.9964 16.5353H39.1436H43.4283L43.3914 16.9181C42.6626 20.5182 39.4086 21.085 37.0675 21.085C33.3939 21.085 29.7792 19.2813 29.7792 15.1807V15.1954C29.7792 11.0948 33.3939 9.29115 37.0675 9.29115C37.0675 9.29115 42.8246 8.91569 43.3694 14.1059Z" fill="white"/>
<path d="M46.8073 18.9789C46.8073 20.0169 45.9681 20.8488 44.93 20.8488C43.892 20.8488 43.0527 20.0169 43.0527 18.9789C43.0527 17.9408 43.892 17.1016 44.93 17.1016C45.9681 17.1016 46.8073 17.9408 46.8073 18.9789Z" fill="#010101"/>
<path d="M42.9129 23.75H42.773C39.8871 23.75 37.8332 24.95 36.5301 26.8347C35.3227 28.5794 34.7559 30.8911 34.7559 33.3721C34.7559 35.7721 35.308 37.7598 36.2871 39.2543C37.6417 41.3377 39.8135 42.4715 42.4197 42.4715C48.3902 42.4715 50.4736 37.3107 50.4736 32.8494C50.4736 29.1684 48.9865 23.831 42.9129 23.75ZM42.6037 38.7905C42.1178 38.7905 41.7056 38.6433 41.3595 38.3782C40.8663 37.9954 40.5129 37.3623 40.3068 36.5451C40.0933 35.6101 40.0712 34.6163 40.0712 33.6518C40.0712 31.8776 40.1743 29.5586 40.8516 28.4175C41.1681 27.9021 41.5878 27.5929 42.0074 27.431C42.243 27.3426 42.4859 27.2985 42.7068 27.2985C43.9583 27.2985 44.6062 28.3144 44.8638 29.4334C45.1215 30.5525 45.173 32.5107 45.173 33.3206C45.1804 35.8752 44.7902 38.7905 42.6037 38.7905Z" fill="white"/>
<path d="M42.9129 23.75H42.773C39.8871 23.75 37.8332 24.95 36.5301 26.8347C35.3227 28.5794 34.7559 30.8911 34.7559 33.3721C34.7559 35.7721 35.308 37.7598 36.2871 39.2543C37.6417 41.3377 39.8135 42.4715 42.4197 42.4715C48.3902 42.4715 50.4736 37.3107 50.4736 32.8494C50.4736 29.1684 48.9865 23.831 42.9129 23.75ZM42.6037 38.7905C42.1178 38.7905 41.7056 38.6433 41.3595 38.3782C40.8663 37.9954 40.5129 37.3623 40.3068 36.5451C40.0933 35.6101 40.0712 34.6163 40.0712 33.6518C40.0712 31.8776 40.1743 29.5586 40.8516 28.4175C41.1681 27.9021 41.5878 27.5929 42.0074 27.431C42.243 27.3426 42.4859 27.2985 42.7068 27.2985C43.9583 27.2985 44.6062 28.3144 44.8638 29.4334C45.1215 30.5525 45.173 32.5107 45.173 33.3206C45.1804 35.8752 44.7902 38.7905 42.6037 38.7905Z" stroke="#939599" stroke-width="0.254442" stroke-miterlimit="10"/>
</g>
<defs>
<clipPath id="clip0_1_8421">
<rect width="48" height="48" fill="white"/>
</clipPath>
</defs>
</svg>
