<svg width="176" height="182" viewBox="0 0 176 182" fill="none" xmlns="http://www.w3.org/2000/svg">
<path d="M155.341 61.0967C155.086 61.3517 155.007 61.7334 155.135 62.0705C157.708 68.8496 159.116 76.2024 159.116 83.8841C159.116 117.849 131.582 145.382 97.6173 145.382C63.6525 145.382 36.1183 117.849 36.1183 83.8841C36.1183 49.9194 63.6525 22.3858 97.6173 22.3858C106.145 22.3858 114.267 24.1214 121.65 27.2587C121.994 27.4049 122.393 27.3299 122.657 27.0657L148.099 1.62425C148.512 1.21015 148.432 0.518207 147.931 0.215843C133.238 -8.63862 116.022 -13.7324 97.6173 -13.7324C43.7048 -13.7324 0 29.9719 0 83.8841C0 137.796 43.7048 181.5 97.6173 181.5C151.53 181.5 195.234 137.796 195.234 83.8841C195.234 66.3115 190.591 49.8231 182.464 35.5793C182.169 35.0633 181.465 34.973 181.045 35.3933L155.341 61.0967Z" fill="#191B1F"/>
<path fill-rule="evenodd" clip-rule="evenodd" d="M164.333 -4.54111L150.914 -6.33007C150.001 -6.45156 149.834 -7.72194 150.683 -8.08249L216.25 -35.9267C216.986 -36.2396 217.73 -35.4953 217.433 -34.7418L191.067 32.2731C190.724 33.1432 189.469 32.9899 189.339 32.0621L187.304 17.5826L109.476 96.745C106.51 99.761 102.488 101.456 98.295 101.456C94.1016 101.456 90.08 99.761 87.1144 96.745L64.1165 73.3524C57.9416 67.0718 57.9416 56.8887 64.1165 50.6081C70.2908 44.328 80.3023 44.328 86.4771 50.6081L98.295 62.6288L164.333 -4.54111Z" fill="#191B1F"/>
</svg>
